<?xml version="1.0" standalone="no"?>
<!DOCTYPE svg PUBLIC "-//W3C//DTD SVG 20010904//EN"
 "http://www.w3.org/TR/2001/REC-SVG-20010904/DTD/svg10.dtd">
<svg version="1.0" xmlns="http://www.w3.org/2000/svg"
 width="1672.000000pt" height="1672.000000pt" viewBox="0 0 1672.000000 1672.000000"
 preserveAspectRatio="xMidYMid meet">
<metadata>
Created by potrace 1.14, written by Peter Selinger 2001-2017
</metadata>
<g transform="translate(0.000000,1672.000000) scale(0.100000,-0.100000)"
fill="#000000" stroke="none">
<path d="M8158 12935 c-2 -1 -39 -6 -83 -9 -79 -7 -126 -13 -175 -22 -14 -3
-43 -7 -65 -9 -118 -13 -522 -127 -562 -158 -7 -5 -13 -7 -13 -4 0 13 -299
-126 -420 -195 -106 -60 -140 -81 -140 -88 0 -5 -10 -12 -21 -15 -18 -6 -81
-49 -126 -85 -7 -6 -15 -10 -18 -10 -3 0 -17 -11 -31 -25 -14 -14 -28 -25 -32
-25 -4 0 -21 -12 -38 -27 -17 -16 -55 -48 -85 -73 -54 -46 -257 -246 -294
-291 -61 -73 -153 -187 -165 -205 -8 -12 -42 -61 -75 -110 -33 -49 -64 -92
-70 -96 -7 -5 -7 -8 0 -8 6 0 6 -3 -1 -8 -6 -4 -25 -34 -44 -67 -49 -89 -43
-85 -108 -65 -32 10 -71 20 -87 23 -17 3 -48 9 -70 15 -45 12 -76 17 -220 36
-133 17 -516 12 -585 -9 -8 -2 -33 -7 -55 -10 -23 -3 -52 -7 -65 -10 -14 -3
-41 -8 -60 -11 -19 -4 -39 -9 -45 -13 -5 -3 -20 -7 -32 -9 -12 -1 -68 -18
-125 -38 -57 -19 -107 -36 -113 -38 -88 -27 -317 -143 -429 -217 -32 -21 -62
-39 -67 -39 -5 0 -9 -3 -9 -7 0 -5 -17 -19 -38 -33 -20 -13 -46 -32 -57 -42
-134 -114 -187 -162 -231 -208 -106 -111 -154 -168 -154 -180 0 -5 -4 -10 -9
-10 -5 0 -20 -17 -32 -37 -13 -21 -28 -42 -35 -48 -21 -18 -124 -188 -172
-285 -26 -52 -50 -96 -54 -98 -5 -2 -8 -10 -8 -18 0 -8 -8 -34 -19 -57 -28
-65 -34 -81 -33 -89 1 -5 -6 -8 -16 -9 -32 -1 -77 -7 -112 -14 -19 -3 -51 -8
-70 -10 -19 -1 -67 -10 -105 -18 -39 -9 -82 -18 -95 -20 -14 -3 -45 -11 -70
-18 -25 -7 -49 -13 -55 -14 -19 -2 -100 -26 -138 -40 -20 -8 -40 -15 -45 -16
-84 -15 -451 -186 -599 -279 -52 -33 -99 -60 -103 -60 -5 0 -10 -3 -12 -7 -1
-5 -32 -28 -68 -53 -76 -52 -74 -51 -165 -126 -38 -32 -73 -63 -77 -68 -4 -6
-8 -7 -8 -2 0 17 -288 -283 -368 -384 -46 -58 -89 -112 -95 -120 -26 -32 -51
-75 -49 -82 1 -5 -2 -8 -7 -8 -7 0 -81 -114 -139 -215 -89 -156 -240 -511
-258 -605 -2 -14 -9 -36 -14 -50 -14 -37 -46 -166 -55 -220 -2 -14 -7 -36 -10
-50 -4 -14 -7 -32 -7 -40 0 -8 -2 -22 -5 -30 -3 -8 -7 -33 -9 -54 -3 -22 -7
-51 -9 -65 -20 -102 -27 -535 -12 -671 15 -132 18 -156 23 -190 3 -19 7 -44 9
-55 2 -11 6 -36 10 -55 4 -19 9 -44 11 -55 4 -26 8 -44 34 -140 12 -44 22 -86
23 -92 0 -7 4 -13 9 -13 5 0 7 -4 4 -9 -3 -4 4 -32 15 -62 11 -30 22 -62 24
-71 2 -9 9 -27 16 -40 7 -13 11 -23 10 -23 -1 0 2 -11 7 -25 189 -488 502
-921 912 -1260 85 -71 179 -140 190 -140 6 0 10 -4 10 -8 0 -4 25 -23 56 -42
31 -19 62 -39 68 -44 12 -11 42 -29 121 -70 22 -12 42 -24 45 -27 5 -6 163
-82 233 -113 132 -57 283 -112 300 -108 4 1 7 -3 7 -9 0 -5 5 -7 10 -4 6 4 17
1 25 -5 8 -7 15 -9 15 -5 0 4 6 2 13 -4 8 -6 16 -8 19 -5 4 3 20 -2 37 -11 17
-8 31 -14 31 -11 0 3 45 -5 105 -21 74 -19 259 -48 380 -60 94 -9 10826 -8
10985 1 154 9 202 13 260 21 25 4 59 8 75 10 36 4 87 13 173 31 65 13 201 47
242 61 25 8 52 16 60 18 8 2 35 11 60 20 25 9 68 24 95 33 28 9 52 20 53 24 2
5 9 8 17 8 39 0 463 216 473 242 2 4 8 8 13 8 15 0 235 158 319 229 14 12 43
36 65 55 92 79 258 250 335 346 19 24 43 51 53 62 9 10 17 22 17 28 0 5 6 13
13 17 6 4 22 22 34 40 58 82 133 194 133 198 0 2 18 33 40 67 22 35 40 68 40
75 0 6 3 13 7 15 9 3 53 90 53 103 0 4 8 14 18 22 10 9 11 11 2 7 -11 -6 -10
-2 3 13 9 11 17 26 17 34 0 8 4 19 8 24 13 15 62 135 55 135 -3 0 0 6 6 14 11
13 70 173 77 211 2 11 8 31 13 45 14 36 58 218 67 275 4 26 13 79 19 110 35
179 40 628 10 860 -10 73 -14 103 -24 155 -17 90 -20 104 -25 128 -4 12 -8 30
-10 40 -24 106 -91 322 -120 387 -7 17 -22 53 -32 80 -25 70 -162 337 -213
415 -23 36 -44 73 -47 83 -4 9 -10 17 -15 17 -4 0 -15 15 -24 34 -9 18 -24 42
-33 52 -9 11 -36 44 -59 75 -23 31 -49 63 -58 72 -9 10 -14 17 -12 17 9 0 -84
101 -203 220 -122 122 -220 212 -220 203 0 -3 -9 5 -19 18 -10 13 -17 32 -15
42 21 111 21 384 -1 557 -2 19 -6 53 -9 75 -6 42 -26 169 -32 195 -10 48 -36
149 -43 171 -7 24 -3 28 63 69 39 24 77 50 84 57 7 7 34 25 60 40 26 15 49 30
52 33 3 3 23 17 45 30 22 13 42 27 45 30 3 4 43 31 90 60 47 30 87 57 90 60 3
3 32 23 65 45 150 101 273 267 330 445 30 98 39 153 38 255 -1 123 -7 161 -50
299 -8 25 -67 141 -95 186 -12 19 -59 71 -104 115 -93 91 -109 105 -124 105
-5 0 -10 4 -10 8 0 8 -142 83 -155 83 -3 -1 -22 5 -42 13 -84 31 -143 41 -258
41 -66 0 -138 -3 -160 -7 -57 -10 -148 -38 -162 -50 -7 -6 -13 -7 -13 -4 0 11
-137 -66 -212 -118 -36 -25 -71 -46 -77 -46 -6 0 -11 -5 -11 -10 0 -6 -7 -13
-16 -17 -9 -3 -94 -58 -188 -120 -94 -63 -173 -116 -177 -118 -3 -2 -19 8 -36
23 -17 15 -39 34 -49 42 -62 50 -148 118 -174 138 -41 32 -224 152 -284 186
-86 50 -345 176 -361 176 -3 0 -24 9 -48 19 -37 17 -235 86 -277 97 -8 2 -35
8 -60 15 -25 6 -52 12 -60 14 -56 15 -204 44 -250 50 -30 4 -63 9 -72 10 -39
8 -148 18 -218 20 -41 2 -75 4 -75 5 0 1 -10 3 -22 4 -13 2 -23 -1 -23 -6 0
-5 -6 -6 -12 -2 -16 10 -148 11 -148 2 0 -4 -13 -3 -29 2 -16 4 -32 6 -35 3
-3 -3 -24 -7 -48 -9 -122 -9 -243 -21 -243 -24 0 -1 -11 -4 -25 -5 -41 -6 -73
-12 -105 -18 -31 -7 -89 -18 -115 -22 -8 -1 -22 -5 -30 -8 -8 -4 -26 -8 -40
-11 -51 -9 -225 -65 -340 -109 -124 -47 -363 -161 -388 -184 -7 -7 -17 -13
-22 -13 -12 0 -144 -82 -148 -91 -2 -5 -8 -7 -13 -3 -5 3 -9 1 -9 -5 0 -5 -8
-12 -19 -16 -10 -3 -28 -14 -40 -25 -12 -10 -47 -35 -77 -56 l-54 -37 -93 94
c-51 52 -124 121 -161 154 -38 33 -78 68 -88 78 -10 9 -18 15 -18 11 0 -3 -11
6 -24 20 -13 15 -28 26 -34 26 -6 0 -12 4 -14 8 -1 4 -39 32 -83 62 -44 30
-81 58 -83 63 -2 4 -8 7 -14 7 -5 0 -28 13 -51 29 -155 106 -613 312 -753 337
-14 2 -44 11 -67 18 -23 8 -55 17 -72 20 -45 9 -73 15 -95 21 -38 10 -55 13
-105 20 -27 4 -57 8 -65 10 -8 1 -40 5 -70 9 -30 4 -73 9 -95 12 -42 6 -492
14 -497 9z"/>
</g>
</svg>
