<?xml version="1.0" encoding="UTF-8"?>
<!-- Created with Inkscape (http://www.inkscape.org/) -->
<svg width="122.13" height="142.52" version="1.1" viewBox="0 0 122.13 142.52" xmlns="http://www.w3.org/2000/svg">
 <g transform="matrix(1.3333 0 0 -1.3333 -215.85 703.79)">
  <g transform="matrix(.31718 0 0 -.31718 0 594)">
   <g transform="matrix(3.1528 0 0 -3.1528 0 1872.8)">
    <path d="m225.03 421.09c0.32415 0.0642 0.71443-0.014 0.97245 0.19244 0.32155 0.25727 0.35756 0.74906 0.61049 1.0741 0.30536 0.3924 0.75243 0.66113 1.0499 1.0595 0.94692 1.2678 1.7044 2.6718 2.672 3.924 0.83226 1.077 1.897 1.962 2.7162 3.049 1.4642 1.9428 2.7989 3.9813 4.121 6.0235 0.41522 0.64139 0.64734 1.3929 1.0855 2.0189 0.30886 0.44122 0.81057 0.72037 1.1337 1.1512 0.31659 0.42211 0.45127 0.96209 0.76786 1.3842 0.32318 0.43094 0.82078 0.71308 1.1339 1.1514 0.74931 1.0491 1.3146 2.22 2.0368 3.288 0.59187 0.87516 1.2233 1.7257 1.9017 2.5356 0.44083 0.5263 1.0008 0.94366 1.4484 1.4642 0.21732 0.25272 0.32814 0.58362 0.53635 0.84387 0.2168 0.271 0.53534 0.45459 0.73146 0.74091 0.65302 0.95328 1.3698 1.8893 1.8038 2.9602 0.36725 0.90616 0.17602 1.9807 0.56255 2.8788 0.15983 0.37137 0.81808 0.34186 0.98251 0.71121 0.21579 0.48477 0.0955 1.0633 0.0425 1.5912-0.0227 0.22574-0.21115 0.40643-0.26529 0.62674-0.0512 0.2084-0.0443 0.42752-0.0465 0.64212-0.0118 1.1617-0.0667 2.3258 4e-3 3.4854 0.0139 0.22687 0.23452 0.40814 0.24855 0.63498 8e-3 0.12292-0.18976 0.19385-0.18976 0.31695 0 0.12314 0.19734 0.19407 0.18976 0.31699-0.014 0.22687-0.22322 0.40912-0.24854 0.63501-0.0588 0.52423-0.0629 1.0588-1e-5 1.5825 0.027 0.22525 0.21113 0.40646 0.26527 0.6268 0.0512 0.20837 0.0465 0.42749 0.0465 0.64209 4e-5 0.3201 0.0162 0.64526-0.0464 0.95917-0.0242 0.1214-0.20326 0.1849-0.20661 0.30865-3e-3 0.12308 0.19246 0.19388 0.18975 0.31696-3e-3 0.12314-0.16643 0.19089-0.2036 0.30832-0.0336 0.1062-0.0287 0.22662 1.4e-4 0.33423 0.0584 0.21768 0.25483 0.3999 0.25729 0.62527 2e-3 0.22632-0.23077 0.40787-0.24356 0.63388-7e-3 0.12293 0.19244 0.19385 0.18973 0.31696-3e-3 0.12313-0.1664 0.19091-0.2036 0.30832-0.0337 0.1062-0.0337 0.22802 0 0.33425 0.0372 0.11741 0.20087 0.18518 0.2036 0.30829 3e-3 0.12311-0.18978 0.19382-0.18976 0.31696 0 0.12314 0.18979 0.19379 0.18979 0.31695 0 0.12314-0.18979 0.19379-0.18979 0.31693 0 0.12317 0.18979 0.19382 0.18979 0.31695 0 0.12317-0.18981 0.19382-0.18979 0.31696 0 0.12317 0.19237 0.19388 0.1898 0.31702-3e-3 0.12927-0.21159 0.20138-0.20321 0.33041 0.11694 1.7983 0.47532 3.5763 0.57428 5.3757 0.0124 0.22574-0.23487 0.40695-0.24386 0.63285-5e-3 0.12371 0.18035 0.18774 0.20638 0.30874 0.0456 0.21195 0.0456 0.43842 0 0.65036-0.026 0.121-0.20641 0.18494-0.20638 0.30872 4e-5 0.12381 0.1747 0.18902 0.20655 0.30865 0.0552 0.2074 0.0465 0.42755 0.0464 0.64215-2e-5 0.42566 0.0245 0.85645-0.0465 1.2761-0.0207 0.12231-0.2198 0.17602-0.2202 0.30008-7.2e-4 0.22332 0.21478 0.41055 0.21718 0.63388 2e-3 0.22464-0.20024 0.41787-0.20346 0.64251-2e-3 0.12311 0.19667 0.19406 0.1897 0.31699-0.0128 0.22598-0.24355 0.40753-0.24356 0.63388 0 0.22635 0.24357 0.40753 0.24351 0.63391-5e-5 0.22605-0.25565 0.40708-0.24385 0.63284 0.0995 1.9046 0.46156 3.7888 0.57437 5.6927 8e-3 0.13526-0.22513 0.20868-0.21667 0.3439 0.11247 1.7986 0.47931 3.5762 0.57432 5.3758 0.0122 0.23129-0.26478 0.41437-0.25639 0.64584 0.0301 0.83017 0.28369 1.6384 0.36918 2.4647 0.31872 3.0802 0.63123 6.1623 0.84311 9.2517 0.0618 0.90137 0.52648 1.9929-0.0227 2.7103-0.59619 0.77887-1.8178 0.78198-2.7832 0.95532-2.4645 0.44257-4.9848 0.50324-7.4597 0.88397-1.7842 0.27454-3.5271 0.77784-5.3068 1.0803-2.5596 0.435-5.1267 0.83722-7.7062 1.1314-0.13362 0.0152-0.21062-0.24133-0.34222-0.21368-7.2255 1.5185-14.395 3.2947-21.617 4.8286-2.0684 0.43927-4.1532 0.81128-6.2493 1.0899-0.13339 0.0177-0.21022-0.23914-0.34239-0.21387-3.839 0.73352-7.6529 1.5953-11.462 2.4694-0.2023 0.0465-0.34692 0.25745-0.55229 0.2876-0.48987 0.0718-1.0453 0.2384-1.4853 0.0114-0.53885-0.27795-0.82709-0.89148-1.1785-1.3856-0.0631-0.0887-0.0693-0.2204-0.0376-0.32452 0.16547-0.5434 0.54637-1.024 0.61977-1.5872 0.1364-1.0467 0.0687-2.1133-2.6e-4 -3.1666-0.0148-0.2268-0.2345-0.40814-0.24852-0.63501-8e-3 -0.12292 0.19729-0.19409 0.1897-0.31701-0.014-0.22681-0.23075-0.40839-0.24852-0.63495-0.066-0.84192-0.0741-1.6922 0-2.5334 0.0293-0.33252 0.25221-0.6239 0.30702-0.95319 0.0352-0.21118 0.0145-0.43438-0.0416-0.64105-0.0341-0.12542-0.22139-0.19208-0.21989-0.32208 0.0115-1.0056 0.21524-2.0011 0.25786-3.0059 0.24375-5.7467 0.59779-11.493 0.60112-17.245 1e-3 -1.8142-0.47631-3.5999-0.58797-5.4107-0.0845-1.3698-0.0763-2.7469 4.4e-4 -4.1171 0.0127-0.22653 0.22872-0.40286 0.26528-0.62677 0.0608-0.37259 0.21382-0.80719 0.022-1.1323-0.19878-0.33692-0.77893-0.26624-1.0261-0.56943-0.48015-0.58905-0.65509-1.3773-1.0763-2.0098-0.42456-0.63754-0.99492-1.1666-1.4495-1.7831-0.45242-0.61361-0.87236-1.2517-1.2684-1.9032-1.2343-2.0301-2.3455-4.1348-3.6211-6.1392-0.20854-0.32766-0.58716-0.51809-0.8156-0.83224-0.62046-0.85324-1.1079-1.7976-1.7211-2.6561-0.44519-0.62332-1.0246-1.1458-1.4495-1.7831-0.42372-0.63556-0.6613-1.3828-1.085-2.0184-0.21548-0.32315-0.58256-0.52149-0.81558-0.83222-0.40443-0.53934-0.67332-1.1732-1.0872-1.7053-0.32976-0.42398-0.79001-0.73264-1.1315-1.1472-0.67165-0.81552-1.2999-1.6672-1.9017-2.5356-0.81787-1.1802-1.5204-2.4385-2.355-3.607-0.75212-1.053-1.6724-1.9812-2.4005-3.051-0.87539-1.2862-1.7256-2.6011-2.4004-4.0029-0.14107-0.29303-0.17986-0.70712 4e-3 -0.97565 0.35692-0.52246 0.95207-0.83911 1.4772-1.192 0.7034-0.47271 1.4341-0.91091 2.198-1.2779 0.86873-0.41733 1.8034-0.68268 2.6866-1.0686 0.78589-0.34338 1.5266-0.78595 2.3174-1.118 0.50241-0.21097 1.0566-0.28485 1.554-0.50748 0.69482-0.31097 1.3131-0.77719 2.0085-1.087 2.1381-0.95261 4.338-1.7613 6.4837-2.6967 1.0248-0.44678 1.993-1.0185 3.0249-1.4486 0.97809-0.40777 2.0158-0.6604 2.9965-1.0616 1.3456-0.55051 2.6369-1.2271 3.9769-1.7913 0.66863-0.28153 1.3871-0.43891 2.0452-0.74433 2.3064-1.0706 4.5194-2.3373 6.8389-3.3793 1.0849-0.48737 2.2286-0.83334 3.3593-1.2022 0.91626-0.29886 1.8658-0.49029 2.7784-0.79996 0.39766-0.13488 0.74872-0.38504 1.1427-0.5303 1.2874-0.47461 2.5805-0.93866 3.8964-1.3274 1.7131-0.50608 3.47-0.85456 5.1847-1.3553 0.34861-0.1018 0.64992-0.32904 0.99282-0.44867 2.093-0.73022 4.179-1.4893 6.31-2.0994 0.12291-0.0352 0.20011 0.20566 0.32779 0.19915 0.22701-0.0116 0.40841-0.23162 0.63511-0.24826m1.0564 2.3741c-0.0677-0.0187-0.13896-0.0847-0.20318-0.0562-0.85807 0.3811-1.6581 0.88507-2.517 1.2643-1.6202 0.71533-3.3024 1.2859-4.9155 2.0172-0.72116 0.3269-1.3412 0.86011-2.077 1.1528-8.5653 3.407-17.248 6.5134-25.806 9.9383-2.0071 0.80323-3.8906 1.8899-5.8777 2.7415-0.97418 0.41751-2.0118 0.67114-2.997 1.062-0.56245 0.22311-1.0703 0.57452-1.6403 0.77765-0.911 0.32461-1.8728 0.48996-2.7887 0.80063-1.3393 0.45428-2.6221 1.0693-3.9715 1.4925-1.7598 0.55185-3.6084 0.80884-5.3453 1.4291-0.85851 0.30658-1.6406 0.81097-2.3882 1.3325-0.22745 0.15869-0.58408 0.41372-0.48795 0.67386 0.46547 1.2594 1.2699 2.3717 2.0241 3.4824 0.51389 0.75683 1.2285 1.3604 1.7666 2.1002 0.31036 0.42669 0.47512 0.94522 0.76783 1.3842 0.13263 0.19892 0.3574 0.32264 0.49877 0.51545 1.0227 1.3946 1.9512 2.8574 2.9889 4.2409 0.23262 0.31018 0.57648 0.52426 0.81452 0.83032 0.50383 0.64777 0.90037 1.3744 1.4041 2.0222 0.23848 0.30667 0.59459 0.51297 0.81572 0.83237 0.73386 1.06 1.3217 2.2153 2.0368 3.288 0.13259 0.19889 0.37195 0.31262 0.49863 0.51532 0.40486 0.64771 0.64699 1.3926 1.085 2.0183 0.30846 0.44062 0.81996 0.71155 1.1325 1.1492 0.74979 1.0498 1.3225 2.2167 2.0381 3.2901 0.13256 0.19889 0.37565 0.31037 0.49864 0.51532 0.51466 0.85764 0.88777 1.7951 1.4025 2.6527 0.58832 0.98032 1.2402 1.9219 1.9023 2.854 0.58694 0.82635 0.82927 2.4134 1.8428 2.4187 2.0303 0.0106 3.759-1.5385 5.6069-2.3797 0.50888-0.23166 0.94451-0.60645 1.4548-0.83499 1.3954-0.62503 2.8672-1.0725 4.2518-1.7211 0.42047-0.19696 0.74095-0.56253 1.1379-0.8035 0.39966-0.24261 0.82095-0.4494 1.2462-0.64377 1.8954-0.86654 3.7953-1.7244 5.714-2.5382 1.4107-0.59835 2.8656-1.0897 4.2723-1.6973 1.3894-0.60016 2.7555-1.2538 4.1122-1.9246 0.70378-0.34797 1.3608-0.78592 2.0664-1.1302 1.1251-0.54904 2.2646-1.0707 3.4219-1.548 0.50453-0.20803 1.0598-0.28079 1.5573-0.50524 1.6408-0.74036 3.1931-1.6705 4.8459-2.3838 2.4013-1.0364 4.8372-1.9978 7.3061-2.8608 1.3029-0.45545 2.6854-0.65302 3.9949-1.0894 0.90858-0.30286 1.745-0.7944 2.6444-1.1234 1.986-0.72653 4.6594-0.41138 6.0066-2.0414 0.71681-0.86728-1.5192-1.6631-2.2124-2.5494-0.8309-1.0624-1.5193-2.2315-2.355-3.2901-0.75101-0.9513-1.6505-1.779-2.3993-2.732-1.5772-2.0073-3.0128-4.1226-4.5737-6.1426-0.23749-0.30737-0.5813-0.52249-0.81569-0.83224-0.30908-0.40845-0.49736-0.89935-0.80467-1.3091-0.32909-0.43879-0.80237-0.76377-1.0969-1.2264-1.0716-1.6832-1.9365-3.4912-2.9868-5.1879-0.32531-0.52551-0.80187-0.94583-1.1331-1.4676-0.59987-0.94486-1.1503-1.9225-1.6538-2.922-0.45473-0.9028-0.87411-1.8268-1.2171-2.7776m-6.4801-2.45c0.13839 0.0379 0.27173 0.1113 0.41519 0.11368 0.046 7.6e-4 0.12819-0.0808 0.0893-0.10535-0.12265-0.0775-0.2773-0.10278-0.42237-0.10513m-1.0165 0.34445c-0.93628 0.31314-1.8611 0.6629-2.8089 0.93942-2.0396 0.59516-4.11 1.0812-6.1501 1.6747-0.66876 0.19458-1.3282 0.42462-1.9727 0.68869-0.60073 0.24618-1.1494 0.61181-1.7573 0.83978-1.9275 0.72284-3.926 1.2506-5.8397 2.0093-0.73271 0.29052-1.3558 0.81235-2.0773 1.1297-1.9264 0.84738-3.9174 1.5406-5.8559 2.36-2.0549 0.86862-4.0641 1.8434-6.1226 2.7034-0.50352 0.21036-1.0594 0.28153-1.5572 0.5051-0.69359 0.31152-1.3181 0.76083-2.0019 1.0934-0.93563 0.45505-1.8867 0.88013-2.8523 1.2675-3.098 1.243-6.24 2.3746-9.336 3.6227-0.4361 0.17581-0.85408 0.39871-1.2538 0.64627-0.0901 0.0559-0.28361 0.19269-0.19517 0.25116 0.21037 0.13907 0.50033 0.16232 0.74787 0.1142 0.93615-0.18204 1.8438-0.49289 2.7486-0.79407 2.1249-0.70734 4.2487-1.4227 6.3375-2.2305 0.80165-0.31003 1.5251-0.79953 2.3231-1.1188 0.78723-0.31498 1.6408-0.44828 2.4213-0.77939 1.9936-0.84565 3.8837-1.9254 5.888-2.7453 2.6516-1.0847 5.3988-1.9218 8.0677-2.9634 1.6643-0.64951 3.2689-1.4447 4.9277-2.1082 4.1528-1.6612 8.3627-3.178 12.505-4.8651 0.51075-0.20804 0.94004-0.58191 1.44-0.81455 0.87758-0.40835 1.8098-0.69235 2.6853-1.1049 0.16419-0.0774 0.53919-0.22486 0.41278-0.35514m7.9173 1.288c-0.0379 0.13839-0.11129 0.27175-0.11366 0.41522-7.6e-4 0.046 0.0808 0.1282 0.10535 0.0893 0.0775-0.12265 0.10274-0.27731 0.10513-0.42236m0.11112 0.63022c0.0143 0.14273-0.0172 0.298 0.0429 0.42825 0.50468 1.0934 1.029 2.1814 1.6405 3.2189 0.76073 1.2908 1.7138 2.462 2.4698 3.7556 0.43608 0.74615 0.61124 1.6346 1.098 2.3487 1.9964 2.9292 4.1799 5.7269 6.3278 8.5468 0.23491 0.30844 0.57648 0.52429 0.8145 0.83032 0.50383 0.64777 0.89149 1.3814 1.4041 2.0222 0.33553 0.4194 0.8017 0.72329 1.1315 1.1472 1.1523 1.4815 2.1536 3.0764 3.3059 4.5579 0.32975 0.42398 0.77919 0.74182 1.1315 1.1472 0.36591 0.42115 0.66211 0.89887 1.019 1.3277 0.087 0.10449 0.18254 0.21536 0.30827 0.26718 0.1032 0.0425 0.25628 0.0771 0.33483-2e-3 0.10655-0.10757 0.14227-0.2951 0.10509-0.44189-0.10395-0.41046-0.29932-0.79629-0.51146-1.1628-0.37893-0.65454-0.78836-1.2951-1.2557-1.8897-0.33235-0.42291-0.8099-0.71906-1.1326-1.1493-0.31664-0.42209-0.46114-0.9549-0.76786-1.3842-0.22583-0.3161-0.58265-0.52158-0.81573-0.83237-1.0376-1.3836-1.9662-2.8462-2.9889-4.2409-0.14138-0.19278-0.36612-0.3165-0.49874-0.51541-0.29272-0.43903-0.46118-0.95487-0.76787-1.3842-0.22625-0.31674-0.59068-0.51767-0.81692-0.83441-0.30669-0.42935-0.46526-0.95197-0.76784-1.3842-0.43974-0.6282-1.0111-1.1571-1.4508-1.7853-0.30272-0.4324-0.47755-0.94412-0.76831-1.3847-1.3401-2.0305-2.6835-4.061-4.1211-6.0236-0.3174-0.43332-0.79964-0.72495-1.1315-1.1473-0.83326-1.0605-1.5338-2.2202-2.355-3.29-0.21007-0.27368-0.45702-0.52338-0.73194-0.73178m-22.825 7.2822c0.24602 0.24716 0.53647 0.45694 0.73807 0.74151 0.30501 0.43054 0.46115 0.95487 0.76784 1.3842 0.22626 0.31674 0.59593 0.51401 0.81692 0.83441 0.5015 0.72711 0.92339 1.5074 1.3367 2.2881 1.0207 1.928 2.0666 3.8465 2.9636 5.835 0.0684 0.15167-0.0314 0.34091-0.11208 0.48645-0.0667 0.12027-0.17194 0.26324-0.30911 0.27328-0.20328 0.0149-0.46799-0.035-0.57477-0.20865-0.55547-0.90313-0.84743-1.9453-1.3306-2.8891-0.61925-1.2097-1.2814-2.3979-1.9744-3.567-0.38878-0.65579-0.81865-1.2876-1.2684-1.9032-0.14105-0.19305-0.36613-0.31653-0.49876-0.51544-0.29271-0.439-0.46958-0.94898-0.76784-1.3842-0.18718-0.27313-0.55789-0.41736-0.67818-0.72586-0.0917-0.23532-0.10162-0.60196 0.10246-0.75076m25.199 3.5859c0.21066 0.061 0.51034 4.8e-4 0.632 0.18298 0.33995 0.50992 0.33451 1.1921 0.63921 1.7238 0.47502 0.82891 1.1531 1.5252 1.6796 2.3224 0.29086 0.4405 0.47549 0.94553 0.76832 1.3847 0.13306 0.19955 0.36692 0.3179 0.49996 0.51749 0.29268 0.43902 0.47516 0.94519 0.76784 1.3842 0.1335 0.20026 0.38295 0.31006 0.50134 0.51959 0.3067 0.54288 0.47331 1.1554 0.75829 1.71 0.72663 1.4142 1.6005 2.7526 2.2746 4.1926 0.0932 0.19901 0.0472 0.44531-3e-3 0.65918-0.0286 0.12119-0.18011 0.18283-0.22282 0.29981-0.0609 0.16671 0.03 0.38641-0.0789 0.52661-0.22455 0.28909-0.54567 0.49545-0.86028 0.68258-1.6592 0.98707-3.3365 1.9465-5.051 2.8341-0.4743 0.24555-1.0202 0.32752-1.5018 0.55832-3.1629 1.5158-6.3135 3.0595-9.4249 4.6784-0.20816 0.1083-0.31613 0.35171-0.50648 0.48892-0.18903 0.13623-0.4056 0.2316-0.61995 0.32293-2.364 1.0072-4.7674 1.9224-7.1129 2.9718-0.538 0.24066-0.99932 0.62854-1.526 0.89312-2.2223 1.1164-4.4926 2.1354-6.7168 3.2479-0.52337 0.26175-0.9976 0.61544-1.5229 0.87326-0.92793 0.45538-1.9072 0.80148-2.8318 1.2638-1.4015 0.70078-2.7219 1.5605-4.1418 2.2232-1.3588 0.63424-2.8055 1.0631-4.1805 1.6613-0.86054 0.37433-1.7271 0.75287-2.5207 1.2537-0.40705 0.2569-0.6351 0.74421-1.0449 0.99665-0.18234 0.11233-0.42816 0.0648-0.6411 0.042-0.16823-0.0181-0.39723-0.0154-0.48088-0.16248-0.49136-0.86374-0.709-1.8618-1.1711-2.7415-0.35493-0.67572-0.81955-1.2892-1.2699-1.9054-0.1406-0.19241-0.35804-0.32019-0.49755-0.51336-1.2356-1.7108-2.3567-3.5035-3.6228-5.1918-0.32227-0.42968-0.78074-0.74048-1.1315-1.1472-0.34494-0.40012-0.6511-0.83286-0.95081-1.2679-0.18391-0.26693-0.4073-0.52401-0.49814-0.83517-0.0467-0.15988 0.0333-0.34024 0.11223-0.48688 0.0737-0.13696 0.18739-0.26569 0.32825-0.33163 0.82489-0.3863 1.6805-0.70572 2.5387-1.0109 1.1181-0.39761 2.2764-0.6785 3.3871-1.0964 1.2878-0.48459 2.5651-1.005 3.8016-1.6086 0.61994-0.30261 1.1346-0.79357 1.7517-1.1021 0.86757-0.43377 1.8196-0.68298 2.6869-1.1172 0.6191-0.30988 1.1439-0.78611 1.7571-1.1073 1.608-0.84232 3.2814-1.5546 4.8986-2.3791 1.1742-0.59861 2.3181-1.2547 3.4733-1.8891 0.95343-0.52356 1.9197-1.0253 2.8526-1.5848 0.40309-0.24176 0.73946-0.58716 1.1502-0.8157 1.2596-0.70096 2.591-1.2674 3.8511-1.9674 0.64387-0.3577 1.2101-0.84467 1.8541-1.2021 2.4451-1.3572 4.9745-2.5598 7.4075-3.9386 0.74026-0.41946 1.3711-1.0124 2.101-1.4496 1.1306-0.67719 2.2886-1.3114 3.4732-1.889 0.8692-0.42389 1.8082-0.69257 2.6798-1.1114 0.366-0.1759 0.63933-0.52435 1.0197-0.66653m0.53644 2.3535c-0.0665-0.14499-0.0426-0.40591-0.19942-0.43493-0.1678-0.0311-0.2364 0.26379-0.39583 0.32467-0.5665 0.21637-1.1951 0.25189-1.7506 0.49509-1.5104 0.66128-2.9803 1.416-4.4259 2.2091-2.312 1.2684-4.5327 2.6986-6.8417 3.9724-0.75669 0.41748-1.5933 0.67816-2.3487 1.0979-0.20439 0.11355-0.30435 0.36642-0.50444 0.48739-1.1628 0.70304-2.3575 1.3537-3.5665 1.9739-0.7326 0.37583-1.5338 0.61167-2.2534 1.0118-0.94407 0.52487-1.7798 1.2306-2.7238 1.7555-2.6282 1.4613-5.3433 2.7617-7.9849 4.1987-1.2918 0.70273-2.5011 1.5546-3.8129 2.2192-0.83707 0.42414-1.7648 0.64481-2.6166 1.0384-0.71251 0.32932-1.3554 0.79712-2.0678 1.1265-1.2466 0.57629-2.5086 1.1256-3.8022 1.5871-1.1891 0.42419-2.4484 0.63293-3.6343 1.0658-0.31596 0.11533-0.83267 0.22931-0.83562 0.56564-4e-3 0.47788 0.51294 0.80985 0.82036 1.1757 0.34552 0.41123 0.78078 0.74042 1.1315 1.1473 0.34542 0.4007 0.66284 0.82688 0.95206 1.2698 0.49675 0.76083 0.89889 1.5812 1.403 2.3372 0.13219 0.19827 0.35904 0.31942 0.49755 0.51333 0.39183 0.54859 0.68272 1.166 1.0872 1.7053 0.23262 0.31015 0.60025 0.50717 0.81451 0.83029 0.53101 0.80081 0.51415 2.157 1.405 2.517 0.77443 0.31292 1.5385-0.65357 2.2864-1.0254 0.31665-0.15741 0.57504-0.42325 0.90146-0.55924 1.5053-0.62723 3.0993-1.0374 4.5784-1.7241 1.487-0.69037 2.835-1.6508 4.2953-2.3958 3.0572-1.5597 6.1873-2.9732 9.253-4.5162 1.1887-0.59826 2.3087-1.3291 3.5078-1.9062 1.6559-0.79696 3.3963-1.4102 5.0497-2.2124 2.864-1.3896 5.6369-2.9616 8.4964-4.3602 1.8924-0.92563 3.8492-1.714 5.7555-2.6108 0.67789-0.31887 1.3545-0.64633 1.9948-1.0353 0.19475-0.11831 0.29342-0.36245 0.49147-0.47515 0.54483-0.31009 1.1737-0.45722 1.7118-0.77881 0.22012-0.13153 0.39746-0.33881 0.52782-0.55963 0.0567-0.096 0.0485-0.23401 3e-5 -0.33442-0.0787-0.16308-0.26579-0.25268-0.35832-0.40835-0.5526-0.92978-1.0804-1.8752-1.5716-2.8388-0.26976-0.52926-0.43443-1.1082-0.70886-1.6351-0.40985-0.78677-0.87259-1.5454-1.3405-2.2991-0.40214-0.64774-0.80642-1.2968-1.2685-1.9033-0.23501-0.30838-0.58269-0.51956-0.81452-0.83032m-1.1909-0.86002c0.0916 0.11066 0.29972 0.19052 0.27478 0.33197-0.0559 0.31693-0.24148 0.6221-0.48086 0.83719-0.68938 0.61942-1.4669 1.1392-2.2573 1.6232-1.3781 0.84381-2.8524 1.5224-4.238 2.3538-0.72964 0.4378-1.3832 0.99295-2.1011 1.4498-0.44534 0.28338-0.94513 0.47607-1.3847 0.76831-0.19471 0.12942-0.2996 0.37454-0.50433 0.48752-2.8669 1.5818-5.8407 2.9672-8.6879 4.5843-1.0711 0.60836-2.0059 1.4332-3.052 2.0836-1.7644 1.0972-3.5331 2.195-5.3748 3.1567-1.4813 0.77356-3.0843 1.2939-4.5789 2.0412-0.83375 0.41687-1.5663 1.0166-2.394 1.4453-1.3437 0.69596-2.7288 1.3101-4.1118 1.9243-1.8576 0.82489-3.6978 1.6995-5.6087 2.3922-0.30641 0.11109-0.66676 0.0929-0.97778-5e-3 -0.18716-0.0587-0.42512-0.23339-0.40347-0.42834 0.0282-0.25385 0.31288-0.41089 0.51411-0.56818 0.18614-0.14553 0.41182-0.23391 0.62949-0.32583 2.1502-0.90799 4.3546-1.6908 6.4719-2.673 2.0269-0.94018 3.9502-2.0903 5.9492-3.0885 1.1667-0.58261 2.3972-1.0358 3.546-1.6529 2.0433-1.0976 4.0452-2.273 6.0219-3.4864 1.0498-0.64438 1.9902-1.459 3.0519-2.0835 2.5338-1.4905 5.1852-2.7743 7.7245-4.2555 1.2664-0.73874 2.4285-1.6462 3.6858-2.4004 1.9135-1.148 3.9087-2.156 5.8222-3.3041 0.20568-0.12341 0.31749-0.36755 0.51751-0.49997 0.46627-0.30865 0.94149-0.62256 1.467-0.81375m-47.214 4.0886c0.20859 0.2052 0.44349 0.38672 0.62575 0.61564 0.21794 0.27377 0.40927 0.57107 0.56747 0.88321 0.26855 0.52984 0.43446 1.1082 0.70888 1.635 0.40971 0.78663 0.8378 1.5677 1.34 2.2987 0.89784 1.3068 1.8532 2.5755 2.8538 3.8055 0.38609 0.47461 0.83877 0.8934 1.2978 1.2978 0.29713 0.26175 0.73298 0.37274 0.96374 0.69455 0.12619 0.176 0.0794 0.44815 1.4e-4 0.64969-0.0721 0.1835-0.23306 0.35285-0.41948 0.41708-0.15445 0.0533-0.35375-2e-3 -0.47814-0.10766-0.7176-0.61102-1.395-1.2763-1.998-2.0006-0.43132-0.5181-0.67332-1.1732-1.0872-1.7053-0.32976-0.42399-0.78079-0.74042-1.1315-1.1473-0.34537-0.40067-0.66834-0.82318-0.95192-1.2697-0.45334-0.71386-0.86717-1.4533-1.2547-2.205-0.51889-1.0064-1.0504-2.0114-1.4628-3.066-0.08-0.20477-0.0975-0.4657 6e-3 -0.65952m-12.872-0.0942c-0.24796 0.0342-0.73564-0.14743-0.74387 0.10275-8e-3 0.24808 0.49109 0.14068 0.73699 0.10675m60.359 0.20273c0.089 0.10745 0.24928 0.18393 0.26695 0.32229 0.0134 0.10459-0.10683 0.1904-0.19383 0.24997-2.201 1.5063-4.3811 3.0484-6.6571 4.4388-3.4281 2.0942-6.9182 4.0884-10.446 6.0095-2.7234 1.4829-5.5616 2.7466-8.3016 4.1987-0.85942 0.45544-1.6377 1.0527-2.4904 1.5207-1.2692 0.69668-2.5569 1.3623-3.8706 1.9708-2.4276 1.1244-4.9327 2.0777-7.3491 3.226-1.2225 0.58094-2.3349 1.377-3.5578 1.9569-0.19604 0.093-0.43384 0.0597-0.64976 0.0384-0.14946-0.0147-0.35543-0.0122-0.42678-0.14441-0.1031-0.19091-0.0894-0.45202-3e-3 -0.65094 0.10277-0.23574 0.30667-0.43362 0.53063-0.56005 0.71685-0.4047 1.5161-0.64447 2.253-1.0114 0.31623-0.15747 0.57917-0.41198 0.90049-0.55877 1.826-0.83399 3.7021-1.555 5.5325-2.3794 1.0432-0.46985 2.0763-0.96432 3.086-1.5024 1.7179-0.91543 3.3694-1.9529 5.0936-2.8563 3.1593-1.6553 6.4128-3.1286 9.5538-4.8184 2.7936-1.5029 5.5285-3.1145 8.2431-4.7559 1.8311-1.1072 3.6161-2.29 5.3896-3.4871 0.19815-0.13376 0.31615-0.36667 0.51541-0.49878 0.46642-0.3092 0.9484-0.60626 1.4674-0.81564 0.20119-0.0812 0.43376-0.0594 0.6497-0.0386m2.5316 1.3133c0.0512 0.14063 0.15261 0.27225 0.15363 0.42188 1e-3 0.16504-0.0248 0.36227-0.14751 0.47266-0.93026 0.83648-1.8965 1.6466-2.9535 2.3158-1.2442 0.78778-2.6513 1.2897-3.9206 2.0364-0.53208 0.31299-0.95808 0.7807-1.4657 1.132-0.86747 0.60049-1.7918 1.1162-2.6562 1.7211-0.19582 0.13708-0.30676 0.38183-0.51531 0.49862-2.4397 1.3663-4.9747 2.5587-7.407 3.9381-1.4744 0.83618-2.8259 1.879-4.3062 2.7047-1.8577 1.0363-3.7596 1.9974-5.6972 2.8755-2.1284 0.9646-4.3403 1.7343-6.491 2.6482-2.0788 0.8833-4.1189 1.8559-6.1962 2.7426-0.69306 0.29587-1.3887 0.59565-2.1128 0.80448-0.21161 0.061-0.45667 0.0784-0.66069-5e-3 -0.18169-0.0738-0.46302-0.24127-0.40357-0.42819 0.12073-0.37961 0.45468-0.7067 0.81709-0.87201 4.1098-1.8745 8.3637-3.4172 12.511-5.2071 1.7863-0.77088 3.5482-1.6002 5.2867-2.4736 1.2144-0.61007 2.3968-1.2834 3.567-1.9744 0.39946-0.23587 0.73428-0.57217 1.1367-0.80304 0.34551-0.19821 0.74959-0.27982 1.0954-0.47745 0.39749-0.22714 0.72016-0.5733 1.1232-0.79034 0.9743-0.52466 2.0213-0.90586 2.9968-1.4282 1.2887-0.6901 2.5637-1.4108 3.7903-2.2061 1.796-1.1644 3.4592-2.5278 5.2705-3.6682 1.0465-0.65891 2.2312-1.0763 3.2872-1.7199 1.1281-0.68759 2.1089-1.6033 3.2519-2.2658m0.43634 4.2203c-0.0146 0.14273 0.0104 0.29535-0.0438 0.42819-0.10907 0.26733-0.21778 0.55951-0.4362 0.74835-0.58984 0.50992-1.2631 0.91995-1.9404 1.3062-1.2794 0.72968-2.6393 1.3113-3.9211 2.0368-4.3188 2.4446-8.5421 5.0564-12.877 7.4717-3.0617 1.7058-6.2357 3.2036-9.3088 4.889-0.21021 0.11526-0.32321 0.35891-0.51726 0.49969-0.21646 0.15707-0.46091 0.27316-0.70341 0.38593-3.5223 1.6379-7.0196 3.3334-10.589 4.8654-0.15291 0.0656-0.34091-0.0314-0.48645-0.11212-0.12027-0.0667-0.24497-0.1745-0.27327-0.30908-0.0336-0.15988 0.0248-0.33737 0.10768-0.47818 0.0995-0.16898 0.24069-0.32984 0.41771-0.41416 3.0525-1.4541 6.2147-2.6751 9.2394-4.1862 1.6256-0.81208 3.1039-1.8923 4.6929-2.7738 0.54867-0.30438 1.1578-0.48797 1.7132-0.78 2.5532-1.3426 5.1005-2.6981 7.6092-4.122 3.3702-1.9129 6.6457-3.99 10.025-5.8869 0.95984-0.53885 2.0159-0.89065 2.9834-1.4156 0.87126-0.47274 1.709-1.0082 2.5239-1.5727 0.27156-0.18814 0.43145-0.52313 0.72375-0.67712 0.18941-0.0998 0.42769-0.0612 0.64089-0.0418m10.606 4.9c0.0943 0.10486 0.24797 0.17792 0.28303 0.31455 0.07 0.27264 0.16413 0.60589 0.0145 0.84433-0.27048 0.43106-0.71039 0.75723-1.164 0.98782-3.1176 1.5846-6.3246 2.9873-9.5076 4.4362-0.88025 0.40069-1.815 0.67914-2.68 1.1117-0.40959 0.20481-0.72072 0.57288-1.1237 0.79038-1.6692 0.90082-3.3629 1.7587-5.0826 2.559-0.65176 0.30328-1.3686 0.44986-2.0229 0.74759-0.50883 0.23153-0.94873 0.5968-1.4546 0.83477-1.0852 0.51053-2.2281 0.89225-3.3111 1.4073-1.3477 0.64087-2.6017 1.4762-3.976 2.0579-4.1274 1.747-8.3673 3.2175-12.513 4.9212-0.50469 0.20739-0.92684 0.5827-1.4245 0.80645-1.6158 0.72644-3.2818 1.3364-4.9075 2.0403-0.43319 0.18753-0.86795 0.38046-1.2669 0.63281-0.19694 0.12457-0.3135 0.34967-0.50231 0.4863-0.26296 0.19027-0.53721 0.59582-0.8431 0.48724-0.40622-0.14417-0.76802-0.62225-0.75067-1.053 0.0197-0.48834 0.45253-0.90478 0.84146-1.2008 0.86139-0.65567 1.8562-1.1203 2.8298-1.5936 0.86965-0.42279 1.8068-0.69257 2.6887-1.0892 1.2353-0.55567 2.4048-1.2562 3.6596-1.7662 3.9283-1.5968 7.9802-2.8841 11.88-4.5502 1.8421-0.78705 3.5157-1.9245 5.3184-2.7981 1.471-0.71283 3.0253-1.2444 4.4961-1.9578 3.044-1.4764 5.9971-3.1357 9.0427-4.6088 0.62647-0.30297 1.3255-0.43228 1.9619-0.71383 1.8147-0.80289 3.6121-1.6467 5.3856-2.5369 0.40162-0.2016 0.71016-0.57583 1.1308-0.73388 0.11539-0.0433 0.2076 0.24588 0.31737 0.18981 0.58041-0.29653 1.0029-0.8471 1.5762-1.1572 0.18834-0.10187 0.42779-0.062 0.64097-0.042m8.2578 4.1668c-0.53917-3e-3 -1.0839-0.0846-1.6175-8e-3 -0.23845 0.0343-0.41256 0.25779-0.64142 0.33298-1.2234 0.4021-2.4799 0.69812-3.7049 1.0956-1.4373 0.46634-2.8396 1.0365-4.2794 1.495-1.1664 0.37146-2.3775 0.59637-3.5354 0.99362-1.4293 0.49036-2.845 1.0307-4.2162 1.6658-1.9979 0.92526-3.8791 2.0905-5.8798 3.0099-2.1233 0.97571-4.3565 1.699-6.4817 2.6705-1.5758 0.72037-3.0351 1.679-4.6106 2.4002-2.1222 0.97143-4.3373 1.7282-6.4716 2.6727-0.51121 0.22623-0.94481 0.60538-1.4546 0.83478-1.6064 0.72287-3.278 1.2949-4.8844 2.0178-0.50966 0.22934-0.94197 0.611-1.4542 0.83445-1.1863 0.51748-2.4276 0.89923-3.6282 1.3826-1.2768 0.51403-2.5494 1.0401-3.8027 1.6092-0.26547 0.12054-0.47864 0.34051-0.7462 0.45636-0.48239 0.20886-1.1202 0.14016-1.4914 0.51239-0.36601 0.367-0.40854 0.96371-0.49096 1.4754-0.0204 0.12671 0.20678 0.20056 0.20037 0.32874-0.0114 0.22702-0.24044 0.40783-0.24855 0.635-0.0753 2.111-0.0795 4.226 0 6.3369 9e-3 0.22616 0.2518 0.40024 0.26229 0.62637 0.0104 0.2244-0.20024 0.41788-0.20346 0.64249-2e-3 0.12314 0.18974 0.19385 0.18974 0.31698 0 0.12314-0.19305 0.19388-0.18974 0.31696 3e-3 0.12378 0.19053 0.18591 0.20659 0.30865 0.0688 0.52637 0.091 1.0634 0.0419 1.592-0.021 0.22635-0.23801 0.40796-0.24855 0.63504-6e-3 0.12931 0.20822 0.20127 0.2037 0.33063-0.12157 3.4859-0.41072 6.964-0.57956 10.448-0.0103 0.2135-8e-3 0.43219 0.0422 0.63992 0.0535 0.22046 0.23882 0.40143 0.26528 0.62674 0.0496 0.4223 0.0278 0.8555-0.0421 1.275-0.0204 0.12238-0.21982 0.176-0.22022 0.30005-7.1e-4 0.22339 0.21482 0.41059 0.21723 0.63394 2e-3 0.22464-0.20322 0.41788-0.20351 0.64255-1.5e-4 0.129 0.21567 0.20163 0.20227 0.32993-0.0995 0.95355-0.43606 1.8726-0.53171 2.8265-0.0129 0.12841 0.17572 0.19867 0.21611 0.32122 0.0349 0.10584 0.0292 0.22681-1.3e-4 0.33429-0.0597 0.21839-0.258 0.40009-0.26227 0.62641-0.0679 3.5935-0.0357 7.1891 0.0468 10.782 2e-3 0.0691 0.13864 0.0757 0.2019 0.0477 0.51187-0.22607 0.94774-0.62048 1.4807-0.79095 0.12633-0.0404 0.20827 0.23383 0.33857 0.20905 2.5117-0.47785 4.969-1.2162 7.4802-1.6965 2.8252-0.5404 5.6968-0.81695 8.5206-1.3642 1.9671-0.38117 3.8824-0.99738 5.8412-1.419 3.3834-0.72809 6.7951-1.3196 10.182-2.0292 1.1622-0.2434 2.2999-0.59686 3.4643-0.82952 1.569-0.31354 3.1407-0.63587 4.7314-0.80823 0.233-0.0253 0.43352 0.24652 0.66673 0.2232 0.84925-0.0849 1.6536-0.45495 2.5028-0.53997 0.23305-0.0234 0.43489 0.25787 0.66645 0.22259 2.7673-0.4212 5.4846-1.1316 8.2477-1.5794 2.2396-0.36297 4.5202-0.44952 6.7531-0.85162 0.62497-0.11255 1.2333-0.35797 1.7778-0.68463 0.1443-0.0866 0.14531-0.31098 0.16081-0.47858 0.0388-0.41968 0.0387-0.84472 4.4e-4 -1.2645-0.47179-5.1768-1.1005-10.339-1.5301-15.519-0.0107-0.12863 0.17551-0.19858 0.21668-0.32089 0.0369-0.1095 0.0173-0.23139 8e-3 -0.34653-0.08-0.98679-0.22925-1.9683-0.27602-2.9572-0.31502-6.6632-0.48788-13.333-0.80913-19.996-0.0996-2.0661-0.38383-4.1216-0.4533-6.1888-0.0816-2.4275-0.0759-4.859 4.4e-4 -7.2866 7e-3 -0.22724 0.27989-0.40998 0.24852-0.63517m-1.3636 1.4726c0.14307 0.14038 0.32222 0.25162 0.42919 0.42114 0.0585 0.0927 0.0413 0.21655 0.0423 0.3262 0.0132 1.4783 0.0763 2.9587 2e-5 4.4351-0.012 0.23294-0.26856 0.41553-0.26248 0.64871 0.0879 3.3733 0.43895 6.7359 0.54266 10.109 7e-3 0.229-0.20976 0.42483-0.21172 0.65393-1e-3 0.12314 0.16634 0.19092 0.20353 0.30832 0.0336 0.10623 0.035 0.22851 0 0.33432-0.0406 0.12283-0.22451 0.19259-0.21711 0.32178 0.11487 2.0096 0.41712 4.0044 0.57914 6.0107 0.0172 0.2131 0.0121 0.43319-0.0421 0.63998-0.0314 0.11975-0.2114 0.18497-0.20654 0.30866 9e-3 0.22619 0.24353 0.40753 0.24353 0.63391 0 0.22635-0.23394 0.40774-0.24353 0.63388-5e-3 0.12304 0.16636 0.19092 0.20355 0.30832 0.0336 0.10623 0.0351 0.22854 0 0.33432-0.0407 0.12292-0.22165 0.19247-0.2175 0.32193 0.11249 3.5163 0.34018 7.0282 0.56497 10.539 0.0588 0.91831 0.26486 1.8258 0.28561 2.7458 3e-3 0.12897-0.1754 0.19855-0.21644 0.32086-0.0367 0.10947-0.0286 0.23282-7e-3 0.34631 0.15682 0.83893 0.44356 1.6548 0.54 2.5028 0.0146 0.12879-0.18489 0.19635-0.21883 0.32144-0.056 0.20633-0.0563 0.4267-0.042 0.64002 0.168 2.5063 1.8041 5.3145 0.58854 7.5128-0.90666 1.6396-3.6317 0.92877-5.4664 1.3086-2.2656 0.46906-4.5449 0.87348-6.8298 1.2371-2.0048 0.31909-4.0308 0.49408-6.0361 0.81049-1.7504 0.27612-3.4717 0.72803-5.2277 0.96649-0.13202 0.0179-0.20935-0.23694-0.33988-0.21027-1.6991 0.34729-3.3429 0.93073-5.0354 1.3089-1.9212 0.42932-3.874 0.70514-5.8 1.1122-0.4224 0.0893-0.81496 0.29724-1.2395 0.37567-1.8763 0.34662-3.7576 0.68005-5.6532 0.89758-0.13222 0.0152-0.20825-0.23132-0.3396-0.20996-2.0519 0.33435-4.0643 0.88013-6.1082 1.2606-2.3384 0.4353-4.7092 0.69489-7.0365 1.1865-1.0236 0.21625-1.9752 0.70734-2.9968 0.93286-0.12482 0.0275-0.19991-0.20062-0.32772-0.19909-0.12381 1e-3 -0.18641 0.18707-0.3087 0.2066-0.31863 0.0508-0.66699 0.11322-0.96797-3e-3 -0.14012-0.0541-0.14161-0.27661-0.14465-0.42676-0.0469-2.3235-0.0174-4.6479-5e-3 -6.9718 1e-3 -0.2146-5e-3 -0.43372 0.0465-0.64209 0.0542-0.22034 0.24802-0.40057 0.26528-0.62677 0.0723-0.94739 0.0676-1.9026 1e-5 -2.8504-0.0162-0.22672-0.2476-0.40769-0.24849-0.63501-9e-4 -0.22635 0.24599-0.40757 0.24352-0.63391-2e-3 -0.22535-0.24774-0.40009-0.25731-0.62528-0.01-0.22443 0.20416-0.41785 0.20341-0.64252-3.9e-4 -0.12381-0.18736-0.18634-0.20654-0.30865-0.0659-0.42011-0.0877-0.85223-0.0419-1.275 0.0244-0.22599 0.23451-0.40815 0.24852-0.63498 8e-3 -0.12293-0.19243-0.19388-0.1897-0.31702 3e-3 -0.12311 0.16638-0.19086 0.20357-0.30826 0.0337-0.10623 0.035-0.22851 1e-5 -0.33432-0.0406-0.12277-0.22548-0.19263-0.21684-0.32162 0.0988-1.4776 0.43031-2.9332 0.5332-4.4105 9e-3 -0.12893-0.20912-0.20126-0.20302-0.33035 0.0107-0.22708 0.21932-0.40964 0.24854-0.63504 0.0411-0.31701 0.0232-0.64511-0.042-0.95801-0.0253-0.12146-0.21801-0.17602-0.2202-0.30008-4e-3 -0.2246 0.21133-0.41799 0.20341-0.64254-8e-3 -0.22715-0.22626-0.40879-0.24849-0.63498-0.0619-0.62976-0.0378-1.2667-4.4e-4 -1.8984 0.15587-2.6399 0.45915-5.2705 0.57971-7.9123 6e-3 -0.12927-0.20889-0.2013-0.20352-0.3306 9e-3 -0.22617 0.24357-0.40756 0.24359-0.63394 2e-5 -0.22635-0.23393-0.40775-0.24353-0.63391-5e-3 -0.12302 0.20534-0.18515 0.20354-0.30826-3e-3 -0.22336-0.21491-0.41058-0.21733-0.63394-2e-3 -0.22464 0.20024-0.41788 0.20346-0.64252 2e-3 -0.12314-0.20249-0.19452-0.18972-0.31702 0.0203-0.19461 0.14173-0.37606 0.27674-0.5177 0.24983-0.26211 0.54661-0.48037 0.85519-0.66983 0.40335-0.24762 0.82683-0.46881 1.27-0.63491 1.0876-0.40766 2.2178-0.69281 3.3119-1.0826 0.53919-0.19205 1.0707-0.40952 1.5845-0.66169 0.70463-0.34582 1.3383-0.83563 2.066-1.1299 2.1344-0.8631 4.3632-1.4784 6.5006-2.3342 1.4293-0.57229 2.7533-1.3899 4.189-1.946 0.11841-0.0459 0.20688 0.24097 0.32603 0.19705 0.42165-0.15536 0.72869-0.53332 1.1308-0.73386 1.085-0.54104 2.1994-1.0229 3.32-1.4855 0.66301-0.27368 1.3651-0.44586 2.0272-0.72171 0.60754-0.25311 1.1613-0.62769 1.776-0.86279 1.134-0.43372 2.3326-0.68741 3.4594-1.1395 1.5428-0.61905 3.0096-1.4146 4.5376-2.0692 0.66381-0.2844 1.372-0.45746 2.034-0.74597 0.29286-0.1276 0.52709-0.36808 0.81922-0.49735 1.0405-0.46042 2.1068-0.8605 3.1693-1.2676 1.1164-0.4277 2.2324-0.85876 3.3668-1.2365 0.645-0.21475 1.3248-0.31589 1.9668-0.53952 1.6661-0.58035 3.3234-1.1904 4.9514-1.8703 0.8639-0.36078 1.7265-0.74509 2.516-1.2483 0.2484-0.15833 0.27643-0.56793 0.53997-0.69949m-0.54822 2.3026c-0.0962 0.093-0.16902 0.21908-0.28867 0.27902-0.93062 0.46625-1.8751 0.90884-2.8436 1.2902-3.7293 1.4686-7.5235 2.7695-11.245 4.2577-0.51263 0.20499-0.93124 0.60501-1.4416 0.81549-5.6248 2.3196-11.314 4.4797-16.951 6.7693-2.0182 0.81973-4.0238 1.6714-6.0134 2.5582-0.26585 0.11847-0.47189 0.35565-0.74574 0.45425-2.0598 0.74158-4.2034 1.2474-6.2364 2.0595-1.1675 0.46634-2.1824 1.2588-3.3339 1.7634-1.2807 0.56131-2.646 0.90884-3.9449 1.4267-0.10996 0.0439-0.18582 0.15122-0.25461 0.24756-0.21164 0.2963-0.42219 0.59723-0.58234 0.92426-0.0493 0.10074-0.0537 0.2243-0.0341 0.33474 0.0586 0.33017 0.27905 0.6352 0.26564 0.97025-0.093 2.3242-0.47896 4.6302-0.58277 6.9539-0.0101 0.22586 0.23493 0.40695 0.24387 0.63284 5e-3 0.12372-0.17472 0.18906-0.20655 0.30869-0.0552 0.20736-0.0464 0.42752-0.0464 0.64212 0 0.3201-0.0162 0.64529 0.0464 0.95919 0.0242 0.1214 0.21206 0.185 0.20655 0.30866-0.0101 0.22708-0.23232 0.40829-0.24849 0.63501-0.0676 0.94772-0.0708 1.9029 0 2.8504 0.0174 0.23233 0.26086 0.41525 0.26144 0.64826 2e-3 0.73761-0.21274 1.4618-0.25438 2.1982-0.25692 4.5438-0.45036 9.0912-0.64108 13.638-9e-3 0.21363-8e-3 0.43219 0.0422 0.63996 0.0535 0.2204 0.22561 0.40338 0.26493 0.62677 0.0371 0.21087 9e-3 0.43292-0.0417 0.64099-0.0534 0.22052-0.24796 0.40057-0.26528 0.62677-0.0566 0.73944-0.0265 1.4863 0.0469 2.2243 6e-3 0.0639 0.1179 0.078 0.18089 0.0658 0.87715-0.17017 1.731-0.45148 2.6108-0.60748 2.4276-0.43048 4.8765-0.73334 7.3064-1.1511 2.4051-0.41351 4.7871-0.95794 7.197-1.3425 1.6697-0.26647 3.3748-0.29351 5.0358-0.60949 6.2166-1.1827 12.367-2.695 18.583-3.8837 3.6284-0.69397 7.3012-1.1343 10.942-1.7631 0.39949-0.069 0.76666-0.29785 1.1709-0.3291 0.12772-0.01 0.19769 0.17352 0.31927 0.21386 0.10949 0.0363 0.23465 0.0371 0.34598 7e-3 0.9991-0.27075 2.4538-9e-3 2.9704-0.90567 0.71201-1.2363 0.0876-2.855 0.0162-4.2799-0.0113-0.22607-0.25421-0.40014-0.26228-0.62637-8e-3 -0.2301 0.23744-0.42657 0.21662-0.65588-0.19186-2.1145-0.64712-4.1992-0.84893-6.3129-0.0122-0.12808 0.17459-0.19827 0.21556-0.32028 0.0368-0.10953 0.0138-0.23108 8e-3 -0.3465-0.17547-3.7904-0.44387-7.5772-0.55084-11.37-6e-3 -0.229 0.20659-0.42486 0.21179-0.65393 3e-3 -0.12313-0.19236-0.19387-0.18977-0.31701 3e-3 -0.12934 0.20535-0.20117 0.20337-0.33051-0.0204-1.328-0.22032-2.6482-0.26945-3.9754"/>
    <path d="m237.96 481.57c0.39045 0.17844 0.84547 0.25583 1.1714 0.53528 0.33861 0.29031 0.65265 0.67404 0.74744 1.1099 0.0425 0.19544-0.2429 0.32874-0.41101 0.43711-0.0917 0.0591-0.21715 0.0525-0.32523 0.0374-0.16258-0.0226-0.32968-0.0622-0.46968-0.14792-0.18152-0.11111-0.26889-0.36822-0.47284-0.42911-0.31187-0.0931-0.66345-0.0929-0.97636-3e-3 -0.32498 0.0929-0.65137 0.26754-0.86458 0.52981-0.26405 0.32483-0.38179 0.75019-0.50195 1.1512-0.0623 0.20797-0.0755 0.43646-0.0378 0.6503 0.1327 0.75454 0.33326 1.4965 0.54495 2.2328 0.17561 0.61081 0.35275 1.2259 0.61575 1.8045 0.50418 1.1091 1.0647 2.1945 1.68 3.246 0.10811 0.18475 0.28475 0.33267 0.47333 0.43396 0.10092 0.0542 0.23831 0.0498 0.3436 5e-3 0.32657-0.14001 0.57729-0.43817 0.91624-0.54477 0.2708-0.0851 0.60106-0.14468 0.85157-0.0111 0.27115 0.14459 0.69629 0.48883 0.53526 0.75055-0.38487 0.62555-1.7194 0.55545-1.7887 1.2866-0.0887 0.93564 0.9202 1.6408 1.4368 2.4258 0.13143 0.19974 0.35982 0.32087 0.49877 0.51545 0.39178 0.54858 0.6716 1.1745 1.0872 1.7053 0.38783 0.49536 0.95838 0.8367 1.311 1.3577 0.12002 0.17734 0.0621 0.42786 0.0418 0.64103-0.0143 0.14929-0.0185 0.34387-0.14379 0.42627-0.14791 0.0973-0.37325 0.0982-0.53086 0.0176-0.26373-0.13501-0.44165-0.39669-0.63992-0.61685-0.34549-0.38357-0.68514-0.77447-0.98906-1.1918-1.1448-1.5717-2.1434-3.2509-3.3547-4.7719-0.0772-0.0969-0.25323 0.0425-0.35308 0.11581-0.29035 0.21311-0.45702 0.61176-0.79761 0.72879-0.18509 0.0636-0.37857-0.13928-0.51775-0.27685-0.22282-0.22025-0.52966-0.45591-0.54037-0.76902-0.0111-0.32458 0.27516-0.59716 0.48512-0.84494 0.18855-0.2225 0.49056-0.32574 0.68843-0.53997 0.047-0.0509 0.0324-0.14539 2e-3 -0.20786-0.7215-1.5003-1.6213-2.9175-2.2472-4.4602-0.40715-1.0035-0.7892-2.0575-0.8362-3.1394-0.0389-0.89541 0.35803-1.7574 0.58583-2.6242 0.041-0.15592 0.0985-0.32316 0.21736-0.43207 0.29132-0.267 0.6344-0.47571 0.98073-0.66596 0.371-0.20382 0.75635-0.39178 1.1624-0.51141m-7.7593 3.9102c0.0891 0.10766 0.21996 0.19149 0.2674 0.32296 0.0203 0.0564-0.0551 0.10831-0.096 0.1521-0.45151 0.48297-1.0709 0.84067-1.379 1.4257-0.198 0.37604-0.13452 0.85929-0.0426 1.2742 0.18738 0.84589 0.48807 1.6712 0.86757 2.4501 0.24344 0.4996 0.76593 0.83514 0.98257 1.3469 0.12572 0.29697 0.0823 0.65637-3e-3 0.96741-0.0312 0.11407-0.22752 0.0882-0.30955 0.1734-0.20594 0.21393-0.31553 0.51398-0.53963 0.70877-0.20714 0.18005-0.46448 0.30386-0.72493 0.39041-0.8696 0.28906-1.7339 0.74906-2.6501 0.73135-0.56519-0.0109-1.0384-0.47021-1.4892-0.8113-0.4885-0.3696-0.90082-0.83426-1.2999-1.299-0.24261-0.28256-0.45769-0.595-0.61597-0.93209-0.22305-0.47504-0.412-0.97251-0.51954-1.4862-0.0675-0.32208-0.0857-0.66992 2e-3 -0.98721 0.0861-0.3129 0.29441-0.58429 0.49996-0.83542 0.2565-0.31339 0.48113-0.74661 0.87432-0.84354 0.82889-0.20434 1.7176-0.13473 2.5611-3e-3 0.35108 0.0547 0.58936 0.40543 0.91623 0.54468 0.10512 0.0448 0.29029 0.0931 0.34267-8e-3 0.0686-0.13288-0.14053-0.28647-0.11452-0.43372 0.10929-0.61834 0.20056-1.2675 0.51158-1.813 0.26966-0.47296 0.68975-0.88415 1.1712-1.1384m-3.1376 4.1206c-0.60296-5e-3 -1.2328-0.19293-1.8089-0.015-0.29402 0.0908-0.43652 0.45611-0.54794 0.74295-0.0806 0.20755-0.0796 0.45996-1.5e-4 0.66793 0.19964 0.5228 0.48457 1.0162 0.8156 1.4674 0.27398 0.37345 0.62324 0.69013 0.98213 0.98291 0.25146 0.20517 0.51744 0.43512 0.83543 0.5 0.52924 0.10794 1.0925 0.11505 1.6204 9.8e-4 0.39194-0.0847 1.0203-0.17948 1.0544-0.57898 0.0611-0.71527-0.44471-1.3828-0.83534-1.985-0.33008-0.50897-0.82286-0.89605-1.2867-1.287m-8.672 0.54995c2e-3 0.2186 0.0534 0.44211 7e-3 0.65576-0.0215 0.0992-0.10928 0.1828-0.19879 0.23066-0.37407 0.20013-0.75319 0.4212-1.1698 0.50149-0.1309 0.0252-0.20894-0.23477-0.34002-0.21054-0.59453 0.10993-1.2828 0.16766-1.715 0.59049-0.26178 0.25613-0.10533 0.74465-0.0115 1.0987 0.19669 0.74197 0.53611 1.4408 0.86817 2.1329 0.0448 0.0934 0.15033 0.22867 0.24617 0.18949 0.59126-0.24176 1.0695-0.71045 1.6547-0.96668 0.5824-0.25503 1.202-0.42679 1.8243-0.55676 0.20932-0.0437 0.4343-0.0159 0.64009 0.0421 0.11985 0.0338 0.18279 0.18018 0.29972 0.22296 0.16784 0.0614 0.38481-0.0233 0.53012 0.0808 0.19754 0.14151 0.28824 0.39188 0.4172 0.59784 0.15845 0.25299 0.3564 0.49234 0.4442 0.77768 0.0656 0.21329 0.0712 0.45765 1e-3 0.66953-0.20418 0.61737-0.32502 1.3412-0.80956 1.7748-0.68083 0.60931-1.578 1.0197-2.4794 1.1686-0.52139 0.0861-1.017-0.29825-1.5006-0.51141-0.22187-0.0978-0.43862-0.23127-0.59831-0.41376-0.59045-0.67471-1.1328-1.3932-1.6337-2.1368-0.26082-0.38721-0.46086-0.8143-0.64365-1.2439-0.20886-0.49084-0.45337-0.98245-0.52841-1.5106-0.0895-0.62988-0.14895-1.3014 0.0426-1.9081 0.12035-0.38116 0.4906-0.65591 0.83243-0.8631 0.45533-0.276 0.97394-0.4653 1.4996-0.55035 0.62468-0.10111 1.2667-0.0372 1.8984 4.6e-4m-18.392 1.3184c0.30015 0.17569 0.69748 0.2446 0.90048 0.527 0.53233 0.74054 0.88136 1.6009 1.2338 2.442 0.63977 1.5269 1.0142 3.1636 1.7387 4.6522 0.41088 0.84421 1.2293 1.4456 1.64 2.29 0.16469 0.33862 0.23236 0.81635 0.0231 1.1294-0.23685 0.35425-0.81792 0.29081-1.1506 0.55707-0.0739 0.0592 0.15966 0.13144 0.17327 0.22519 0.0463 0.31848 0.0525 0.64804-2.3e-4 0.96552-0.0166 0.0997-0.10921 0.18176-0.19838 0.2294-0.37846 0.20218-0.75354 0.50967-1.1826 0.50833-0.63221-2e-3 -1.2395-0.27826-1.8246-0.51767-0.33976-0.13901-0.68045-0.32715-0.92-0.60532-0.47147-0.54751-0.93887-1.1396-1.1717-1.8236-0.17388-0.51092-0.10771-1.0903 0-1.6191 0.0648-0.31802 0.30165-0.57855 0.49998-0.83544 0.18534-0.24006 0.37502-0.50116 0.6424-0.64426 0.51039-0.27313 1.655 2e-3 1.6382-0.57626-0.0496-1.7113-1.102-3.2467-1.7944-4.8125-0.10057-0.22742-0.32106-0.5849-0.55445-0.49912-0.5186 0.19064-0.83986 0.72458-1.1996 1.144-0.21105 0.24603-0.40729 0.52402-0.49813 0.83518-0.0467 0.15988 0.0328 0.34048 0.1122 0.4869 0.10054 0.18558 0.35136 0.2786 0.41211 0.48072 0.0302 0.10043-0.10812 0.18686-0.19293 0.24853-0.26219 0.19071-0.53591 0.37363-0.83487 0.49903-0.10562 0.0443-0.24906 0.06-0.34358-5e-3 -0.28597-0.19562-0.61737-0.40836-0.7361-0.73383-0.14777-0.405-0.10137-0.8735-3e-3 -1.2933 0.0737-0.31604 0.3129-0.57026 0.49997-0.83542 0.22972-0.32566 0.4657-0.65125 0.74756-0.93296 0.26048-0.26034 0.55779-0.48532 0.86878-0.68261m22.103 2.995c-0.5363-1e-3 -1.1035-0.18377-1.6089-4e-3 -0.64685 0.22958-1.1582 0.74237-1.6906 1.1756-0.052 0.0423-0.0392 0.14578-1e-3 0.20095 0.14694 0.21351 0.32636 0.40882 0.53064 0.56836 0.25537 0.19944 0.53601 0.37268 0.83484 0.49802 0.10834 0.0455 0.24568 0.049 0.35246-3e-5 0.52426-0.24057 1.0644-0.48129 1.5058-0.85266 0.24542-0.20651 0.40218-0.51932 0.4911-0.82749 0.0461-0.15985-0.0323-0.34036-0.11201-0.48635m-13.479-0.17475c0.12268 0.0635 0.27803 0.0857 0.36804 0.19049 0.58016 0.67551 1.1706 1.3554 1.6199 2.1241 0.46438 0.79455 0.41254 1.9214 1.1012 2.5318 0.32161 0.28506 0.76481-0.42246 1.1868-0.50369 0.13066-0.0252 0.20831 0.23181 0.33955 0.20983 0.54184-0.0907 1.0155-0.46514 1.5613-0.52795 0.1995-0.0229 0.38501 0.14792 0.52942 0.28748 0.22269 0.21514 0.4435 0.45938 0.54595 0.75158 0.055 0.15695-0.029 0.34207-0.11196 0.48621-0.0683 0.11853-0.18132 0.24823-0.31761 0.25983-0.1234 0.0105-0.18793-0.18003-0.30893-0.20646-0.2155-0.0471-0.4452-0.0477-0.6617-5e-3 -0.76333 0.14899-1.5176 0.34744-2.261 0.57596-0.19947 0.0613-0.35367 0.23474-0.555 0.28964-0.20929 0.057-0.4338 0.0606-0.64961 0.0387-0.16415-0.0167-0.33221-0.0632-0.47088-0.15259-0.16488-0.10629-0.30442-0.25543-0.4142-0.41797-0.5544-0.82077-1.0954-1.6533-1.5715-2.5218-0.43058-0.7854-0.82551-1.5942-1.144-2.4314-0.0515-0.13544-0.01-0.30158 0.0551-0.43122 0.12283-0.24603 0.24243-0.5455 0.4911-0.66287m-4.846 5.0845c-0.28633-5e-3 -0.6063-0.14831-0.85901-0.0136-0.27426 0.14621-0.58219 0.45172-0.54057 0.75974 0.0779 0.57663 0.4128 1.1404 0.84934 1.5251 0.49073 0.43253 1.1403 0.73575 1.791 0.80207 0.31014 0.0316 0.61406-0.26767 0.76216-0.542 0.13347-0.24722 0.0947-0.58386-0.0146-0.84271-0.18906-0.44803-0.47272-0.87558-0.84338-1.1904"/>
   </g>
  </g>
 </g>
</svg>
